


Note : Original DVD Is Out Now ! No Watermark ! Enjoy !



Screens :


 
http://www.shotpix.com/images/17993600647320915175.jpg
 
http://www.shotpix.com/images/32674649990213901380.jpeg
 
http://i.imgur.com/RiFZ5.jpg
 
http://i.imgur.com/BAZQV.jpg



Extra Screen Shots :


 
http://www.shotpix.com/images/92279518482867100107.jpg
 
http://www.shotpix.com/images/09218895492192922675.jpg
 
http://www.shotpix.com/images/35444444536772994150.jpg



Media Info :



Format                           : AVI
Format/Info                      : Audio Video Interleave
File size                        : 700 MiB
Duration                         : 1h 59mn
Overall bit rate                 : 816 Kbps

Video
ID                               : 0
Format                           : MPEG-4 Visual
Format settings, GMC             : No warppoints
Format settings, Matrix          : Custom
Codec ID                         : XVID
Codec ID/Hint                    : XviD
Duration                         : 1h 59mn
Bit rate                         : 698 Kbps
Width                            : 624 pixels
Height                           : 272 pixels
Display aspect ratio             : 2.25:1
Frame rate                       : 25.000 fps
Color space                      : YUV
Chroma subsampling               : 4:2:0
Bit depth                        : 8 bits
Scan type                        : Progressive
Compression mode                 : Lossy
Bits/(Pixel*Frame)               : 0.165
Stream size                      : 599 MiB (86%)

Audio
ID                               : 1
Format                           : MPEG Audio
Format version                   : Version 1
Format profile                   : Layer 3
Mode                             : Joint stereo
Mode extension                   : MS Stereo
Codec ID                         : 55
Codec ID/Hint                    : MP3
Duration                         : 1h 59mn
Bit rate mode                    : Variable
Bit rate                         : 105 Kbps
Nominal bit rate                 : 128 Kbps
Channel(s)                       : 2 channels
Sampling rate                    : 48.0 KHz
Compression mode                 : Lossy
Stream size                      : 90.1 MiB (13%)
Alignment                        : Aligned on interleaves
Interleave, duration             : 24 ms (0.60 video frame)




